<?xml version="1.0" standalone="no"?>
<!DOCTYPE svg PUBLIC "-//W3C//DTD SVG 20010904//EN"
 "http://www.w3.org/TR/2001/REC-SVG-20010904/DTD/svg10.dtd">
<svg version="1.0" xmlns="http://www.w3.org/2000/svg"
 width="256.000000pt" height="256.000000pt" viewBox="0 0 256.000000 256.000000"
 preserveAspectRatio="xMidYMid meet">
<metadata>
Created by potrace 1.12, written by Peter Selinger 2001-2015
</metadata>
<g transform="translate(0.000000,256.000000) scale(0.100000,-0.100000)"
fill="#000000" stroke="none">
<path d="M1060 2545 c-277 -52 -490 -164 -686 -359 -176 -175 -288 -374 -346
-615 -30 -125 -36 -364 -13 -502 42 -255 148 -471 323 -659 194 -210 444 -347
717 -394 117 -21 333 -21 450 0 395 68 743 329 925 692 89 179 130 361 130
576 0 366 -138 683 -407 936 -182 171 -413 286 -656 325 -110 18 -344 18 -437
0z m-69 -277 c-68 -103 -163 -281 -196 -370 -10 -27 -21 -48 -24 -48 -16 0
-155 99 -216 153 l-66 59 47 41 c80 71 165 127 269 178 81 39 209 85 247 88 5
1 -23 -45 -61 -101z m588 80 c108 -27 249 -96 358 -176 l62 -45 -45 -53 c-45
-52 -181 -171 -188 -163 -2 2 -31 60 -65 129 -35 68 -94 171 -132 228 -38 57
-62 101 -53 98 9 -4 37 -12 63 -18z m-389 -354 l0 -256 -62 7 c-62 7 -198 34
-198 39 0 13 69 166 102 226 36 66 149 240 156 240 1 0 2 -115 2 -256z m251
154 c87 -132 176 -318 158 -329 -20 -13 -95 -36 -166 -53 l-63 -14 0 244 c0
134 2 244 5 244 3 0 33 -42 66 -92z m738 -216 c92 -125 177 -324 196 -462 3
-25 8 -57 11 -72 l6 -28 -251 0 -251 0 -4 23 c-3 12 -8 53 -11 91 -4 37 -17
110 -29 161 l-23 93 30 17 c49 29 169 133 220 191 27 30 50 54 52 54 2 0 26
-31 54 -68z m-1734 -65 c79 -68 146 -117 218 -157 48 -27 58 -36 53 -54 -10
-39 -35 -200 -38 -241 l-3 -40 -252 -3 -253 -2 7 47 c12 94 52 234 93 320 42
91 97 183 109 183 3 0 33 -24 66 -53z m1243 -312 c11 -55 22 -119 25 -142 l5
-43 -174 0 -174 0 0 103 0 103 88 18 c48 10 114 28 147 40 33 12 61 22 62 21
1 0 11 -45 21 -100z m-575 19 l77 -7 0 -98 0 -99 -176 0 -176 0 7 53 c7 57 25
165 30 183 2 8 26 6 82 -7 43 -10 113 -22 156 -25z m-439 -400 c3 -9 6 -31 6
-51 0 -30 32 -208 46 -254 3 -11 -19 -30 -71 -63 -42 -27 -114 -85 -162 -129
l-85 -81 -24 29 c-33 40 -105 168 -131 230 -27 65 -60 178 -68 235 -3 25 -8
57 -11 73 l-6 27 250 0 c219 0 251 -2 256 -16z m516 -83 c0 -108 -1 -111 -71
-111 -15 0 -70 -11 -123 -25 -53 -14 -100 -25 -104 -25 -8 0 -35 127 -47 218
l-5 42 175 0 175 0 0 -99z m525 72 c-22 -140 -38 -224 -45 -228 -4 -2 -52 6
-106 20 -54 13 -120 26 -146 30 l-48 6 0 100 0 99 175 0 175 0 -5 -27z m671 0
c-3 -16 -8 -48 -11 -73 -11 -77 -55 -211 -97 -295 -40 -79 -103 -181 -118
-190 -4 -2 -41 27 -81 66 -55 53 -204 164 -246 184 -1 0 7 39 17 85 11 47 22
117 25 155 4 39 8 76 10 83 3 9 63 12 255 12 l252 0 -6 -27z m-1196 -595 l0
-243 -20 25 c-87 108 -238 399 -215 413 22 12 167 45 203 46 l32 1 0 -242z
m323 221 c45 -11 87 -24 93 -27 22 -13 -133 -309 -216 -412 l-20 -25 0 243 0
242 31 0 c17 0 67 -9 112 -21z m-676 -216 c56 -118 128 -240 193 -328 l42 -57
-33 7 c-126 25 -298 103 -409 185 -112 83 -111 79 -45 145 51 51 182 154 195
155 3 0 29 -48 57 -107z m1030 48 c44 -33 99 -81 123 -107 l44 -47 -45 -40
c-114 -102 -313 -201 -467 -232 l-34 -7 50 69 c66 91 153 242 198 342 20 44
40 81 45 81 4 0 43 -27 86 -59z"/>
</g>
</svg>
